<?xml version="1.0" standalone="no"?><!DOCTYPE svg PUBLIC "-//W3C//DTD SVG 1.1//EN" "http://www.w3.org/Graphics/SVG/1.1/DTD/svg11.dtd"><svg t="1656206312641" class="icon" viewBox="0 0 1024 1024" version="1.1" xmlns="http://www.w3.org/2000/svg" p-id="4658" xmlns:xlink="http://www.w3.org/1999/xlink" width="200" height="200"><defs><style type="text/css">@font-face { font-family: feedback-iconfont; src: url("//at.alicdn.com/t/font_1031158_u69w8yhxdu.woff2?t=1630033759944") format("woff2"), url("//at.alicdn.com/t/font_1031158_u69w8yhxdu.woff?t=1630033759944") format("woff"), url("//at.alicdn.com/t/font_1031158_u69w8yhxdu.ttf?t=1630033759944") format("truetype"); }
</style></defs><path d="M512 0c282.773333 0 512 229.226667 512 512S794.773333 1024 512 1024 0 794.773333 0 512 229.226667 0 512 0z m0 64C264.576 64 64 264.576 64 512s200.576 448 448 448 448-200.576 448-448S759.424 64 512 64z m224 661.333333a32 32 0 0 1 0 64h-448a32 32 0 0 1 0-64h448zM600.682667 197.802667a32 32 0 0 1 45.248 0l105.6 105.6a32 32 0 0 1 0 45.248L449.834667 650.346667a32 32 0 0 1-15.765334 8.64l-135.317333 29.717333a32 32 0 0 1-38.122667-38.122667l29.717334-135.317333a32 32 0 0 1 8.64-15.765333zM525.226667 363.733333l-174.4 174.4-16.981334 77.312 77.333334-16.981333 174.378666-174.4-60.330666-60.330667z m98.069333-98.048l-52.821333 52.8 60.330666 60.330667 52.821334-52.8-60.330667-60.330667z" p-id="4659"></path></svg>