<?xml version="1.0" standalone="no"?><!DOCTYPE svg PUBLIC "-//W3C//DTD SVG 1.1//EN" "http://www.w3.org/Graphics/SVG/1.1/DTD/svg11.dtd"><svg t="1656225298534" class="icon" viewBox="0 0 1210 1024" version="1.1" xmlns="http://www.w3.org/2000/svg" p-id="3629" xmlns:xlink="http://www.w3.org/1999/xlink" width="236.328125" height="200"><defs><style type="text/css">@font-face { font-family: feedback-iconfont; src: url("//at.alicdn.com/t/font_1031158_u69w8yhxdu.woff2?t=1630033759944") format("woff2"), url("//at.alicdn.com/t/font_1031158_u69w8yhxdu.woff?t=1630033759944") format("woff"), url("//at.alicdn.com/t/font_1031158_u69w8yhxdu.ttf?t=1630033759944") format("truetype"); }
</style></defs><path d="M186.181818 74.472727A111.709091 111.709091 0 0 0 74.472727 186.181818v651.636364A111.709091 111.709091 0 0 0 186.181818 949.527273h837.818182a111.709091 111.709091 0 0 0 111.709091-111.709091V186.181818A111.709091 111.709091 0 0 0 1024 74.472727H186.181818zM186.181818 0h837.818182a186.181818 186.181818 0 0 1 186.181818 186.181818v651.636364a186.181818 186.181818 0 0 1-186.181818 186.181818H186.181818a186.181818 186.181818 0 0 1-186.181818-186.181818V186.181818a186.181818 186.181818 0 0 1 186.181818-186.181818z m266.24 623.010909l-5.352727 0.465455-110.312727-94.254546 2.094545-13.125818 216.064-216.343273L662.202182 409.6l-209.826909 213.457455z m246.737455-250.926545l-111.150546-105.518546 78.522182-78.615273 32.116364-1.675636 80.011636 79.732364-4.887273 30.161454-74.612363 75.869091z m-395.450182 304.919272l-24.064 8.052364 9.634909-35.002182 31.604364-75.869091 76.101818 62.557091-93.277091 40.261818z m6.190545 53.573819h544.349091c16.616727 0.046545 30.114909 13.498182 30.114909 30.161454v0.093091c0 16.616727-13.498182 30.114909-30.114909 30.114909H309.899636a30.254545 30.254545 0 0 1 0-60.369454z m544.023273-75.496728h-301.847273a30.394182 30.394182 0 1 1 0-60.834909h301.847273a30.440727 30.440727 0 0 1 0 60.834909z" p-id="3630"></path></svg>