<?xml version="1.0" standalone="no"?><!DOCTYPE svg PUBLIC "-//W3C//DTD SVG 1.1//EN" "http://www.w3.org/Graphics/SVG/1.1/DTD/svg11.dtd"><svg t="1656206130505" class="icon" viewBox="0 0 1024 1024" version="1.1" xmlns="http://www.w3.org/2000/svg" p-id="4054" xmlns:xlink="http://www.w3.org/1999/xlink" width="200" height="200"><defs><style type="text/css">@font-face { font-family: feedback-iconfont; src: url("//at.alicdn.com/t/font_1031158_u69w8yhxdu.woff2?t=1630033759944") format("woff2"), url("//at.alicdn.com/t/font_1031158_u69w8yhxdu.woff?t=1630033759944") format("woff"), url("//at.alicdn.com/t/font_1031158_u69w8yhxdu.ttf?t=1630033759944") format("truetype"); }
</style></defs><path d="M512 448m-184 0a184 184 0 1 0 368 0 184 184 0 1 0-368 0Z" p-id="4055"></path><path d="M792 785.6c70.4-72 112-168 112-273.6 0-216-176-392-392-392S120 296 120 512c0 105.6 41.6 201.6 110.4 273.6 0 0 0 1.6 1.6 1.6 68.8 70.4 161.6 112 259.2 116.8h41.6c97.6-4.8 190.4-46.4 259.2-118.4zM512 168c190.4 0 344 153.6 344 344 0 76.8-25.6 148.8-68.8 206.4-16-51.2-38.4-96-68.8-134.4-4.8-6.4-11.2-9.6-19.2-9.6-6.4 0-14.4 3.2-19.2 9.6-41.6 51.2-102.4 81.6-168 81.6s-128-30.4-168-81.6c-4.8-6.4-11.2-9.6-19.2-9.6s-14.4 3.2-19.2 9.6c-30.4 38.4-52.8 84.8-68.8 134.4-43.2-57.6-68.8-128-68.8-206.4 0-190.4 153.6-344 344-344z" p-id="4056"></path></svg>