<?xml version="1.0" standalone="no"?><!DOCTYPE svg PUBLIC "-//W3C//DTD SVG 1.1//EN" "http://www.w3.org/Graphics/SVG/1.1/DTD/svg11.dtd"><svg t="1656225255886" class="icon" viewBox="0 0 1024 1024" version="1.1" xmlns="http://www.w3.org/2000/svg" p-id="2942" xmlns:xlink="http://www.w3.org/1999/xlink" width="200" height="200"><defs><style type="text/css">@font-face { font-family: feedback-iconfont; src: url("//at.alicdn.com/t/font_1031158_u69w8yhxdu.woff2?t=1630033759944") format("woff2"), url("//at.alicdn.com/t/font_1031158_u69w8yhxdu.woff?t=1630033759944") format("woff"), url("//at.alicdn.com/t/font_1031158_u69w8yhxdu.ttf?t=1630033759944") format("truetype"); }
</style></defs><path d="M938.666667 138.666667v746.666666a53.393333 53.393333 0 0 1-53.333334 53.333334H138.666667a53.393333 53.393333 0 0 1-53.333334-53.333334V138.666667a53.393333 53.393333 0 0 1 53.333334-53.333334h746.666666a53.393333 53.393333 0 0 1 53.333334 53.333334z m-230.12 342.173333l-266.666667-175.966667A37.333333 37.333333 0 0 0 384 336.033333V688a37.333333 37.333333 0 0 0 57.9 31.16l266.666667-176a37.333333 37.333333 0 0 0 0-62.32z"  p-id="2943"></path></svg>