<?xml version="1.0" standalone="no"?><!DOCTYPE svg PUBLIC "-//W3C//DTD SVG 1.1//EN" "http://www.w3.org/Graphics/SVG/1.1/DTD/svg11.dtd"><svg t="1656205926042" class="icon" viewBox="0 0 1024 1024" version="1.1" xmlns="http://www.w3.org/2000/svg" p-id="3191" xmlns:xlink="http://www.w3.org/1999/xlink" width="200" height="200"><defs><style type="text/css">@font-face { font-family: feedback-iconfont; src: url("//at.alicdn.com/t/font_1031158_u69w8yhxdu.woff2?t=1630033759944") format("woff2"), url("//at.alicdn.com/t/font_1031158_u69w8yhxdu.woff?t=1630033759944") format("woff"), url("//at.alicdn.com/t/font_1031158_u69w8yhxdu.ttf?t=1630033759944") format("truetype"); }
</style></defs><path d="M160.1024 446.208c21.6576-193.4336 183.1936-343.7568 379.392-343.7568C750.592 102.4512 921.6 276.224 921.6 490.5472a389.9392 389.9392 0 0 1-89.6 249.6l-121.344-125.2352-139.6736-153.7024v-1.024h-0.9216l-1.7408-1.9456-0.6144-0.6144a36.8128 36.8128 0 0 0-1.8432-1.8432l2.4576 2.4576a36.864 36.864 0 0 0-24.3712-11.8784l-2.7136-0.1024z m417.6384 131.2256l204.9024 225.3824a378.112 378.112 0 0 1-204.8512 96.9216l-0.0512-322.304z m-475.2384-58.0096h402.1248V921.6c-218.4192-2.7648-395.4688-180.0704-402.1248-400.9984v-1.2288z" p-id="3192"></path></svg>